<svg width="16" height="13" viewBox="0 0 16 13" fill="none" xmlns="http://www.w3.org/2000/svg">
<path fill-rule="evenodd" clip-rule="evenodd" d="M7.52879 2.32874C7.65381 2.20376 7.82334 2.13354 8.00012 2.13354C8.1769 2.13354 8.34644 2.20376 8.47145 2.32874L12.2428 6.10007C12.3642 6.2258 12.4314 6.39421 12.4299 6.569C12.4284 6.7438 12.3583 6.91101 12.2347 7.03462C12.1111 7.15822 11.9439 7.22833 11.7691 7.22985C11.5943 7.23137 11.4259 7.16417 11.3001 7.04274L8.00012 3.74274L4.70012 7.04274C4.57439 7.16417 4.40598 7.23137 4.23119 7.22985C4.05639 7.22833 3.88918 7.15822 3.76557 7.03462C3.64197 6.91101 3.57186 6.7438 3.57034 6.569C3.56882 6.39421 3.63601 6.2258 3.75745 6.10007L7.52879 2.32874Z" fill="white"/>
</svg>
